<svg xmlns="http://www.w3.org/2000/svg" width="1120" height="630" viewBox="0 0 1120 630">
<rect width="1120" height="630" fill="#f8fafc"/>
<rect x="34" y="34" width="1052" height="562" rx="26" fill="#ffffff" stroke="#d7dee8" stroke-width="2"/>
<text x="70" y="92" font-size="38" font-weight="700" fill="#102033">一次对话多次工具调用</text>
<text x="70" y="128" font-size="20" fill="#5d6878">复杂问题可能触发多个工具，再由模型汇总</text>
<rect x="67" y="245" width="178" height="142" rx="18" fill="#eef6ff" stroke="#cbd5e1" stroke-width="2"/>
<circle cx="99" cy="279" r="15" fill="#16a34a"/>
<text x="99" y="286" text-anchor="middle" font-size="18" font-weight="700" fill="#ffffff">1</text>
<text x="125" y="287" font-size="25" font-weight="700" fill="#102033">识别任务</text>
<path d="M 252 316 H 258" stroke="#16a34a" stroke-width="4" stroke-linecap="round"/>
<path d="M 258 316 l -12 -8 v16 z" fill="#16a34a"/>
<rect x="269" y="245" width="178" height="142" rx="18" fill="#eef6ff" stroke="#cbd5e1" stroke-width="2"/>
<circle cx="301" cy="279" r="15" fill="#16a34a"/>
<text x="301" y="286" text-anchor="middle" font-size="18" font-weight="700" fill="#ffffff">2</text>
<text x="327" y="287" font-size="25" font-weight="700" fill="#102033">拆分调用</text>
<path d="M 454 316 H 460" stroke="#16a34a" stroke-width="4" stroke-linecap="round"/>
<path d="M 460 316 l -12 -8 v16 z" fill="#16a34a"/>
<rect x="471" y="245" width="178" height="142" rx="18" fill="#eef6ff" stroke="#cbd5e1" stroke-width="2"/>
<circle cx="503" cy="279" r="15" fill="#16a34a"/>
<text x="503" y="286" text-anchor="middle" font-size="18" font-weight="700" fill="#ffffff">3</text>
<text x="529" y="287" font-size="25" font-weight="700" fill="#102033">并行/串行</text>
<path d="M 656 316 H 662" stroke="#16a34a" stroke-width="4" stroke-linecap="round"/>
<path d="M 662 316 l -12 -8 v16 z" fill="#16a34a"/>
<rect x="673" y="245" width="178" height="142" rx="18" fill="#eef6ff" stroke="#cbd5e1" stroke-width="2"/>
<circle cx="705" cy="279" r="15" fill="#16a34a"/>
<text x="705" y="286" text-anchor="middle" font-size="18" font-weight="700" fill="#ffffff">4</text>
<text x="731" y="287" font-size="25" font-weight="700" fill="#102033">合并结果</text>
<path d="M 858 316 H 864" stroke="#16a34a" stroke-width="4" stroke-linecap="round"/>
<path d="M 864 316 l -12 -8 v16 z" fill="#16a34a"/>
<rect x="875" y="245" width="178" height="142" rx="18" fill="#eef6ff" stroke="#cbd5e1" stroke-width="2"/>
<circle cx="907" cy="279" r="15" fill="#16a34a"/>
<text x="907" y="286" text-anchor="middle" font-size="18" font-weight="700" fill="#ffffff">5</text>
<text x="933" y="287" font-size="25" font-weight="700" fill="#102033">最终回答</text>
<rect x="70" y="475" width="980" height="62" rx="16" fill="#f1f5f9"/>
<text x="92" y="514" font-size="23" fill="#102033">多工具场景要关注调用次数、超时和失败兜底。</text>
</svg>
