<svg xmlns="http://www.w3.org/2000/svg" width="1120" height="630" viewBox="0 0 1120 630">
<rect width="1120" height="630" fill="#f8fafc"/>
<rect x="34" y="34" width="1052" height="562" rx="26" fill="#ffffff" stroke="#d7dee8" stroke-width="2"/>
<text x="70" y="92" font-size="38" font-weight="700" fill="#102033">多轮对话记忆</text>
<text x="70" y="128" font-size="20" fill="#5d6878">conversationId 是隔离不同会话的关键</text>
<rect x="67" y="245" width="178" height="142" rx="18" fill="#eef6ff" stroke="#cbd5e1" stroke-width="2"/>
<circle cx="99" cy="279" r="15" fill="#9333ea"/>
<text x="99" y="286" text-anchor="middle" font-size="18" font-weight="700" fill="#ffffff">1</text>
<text x="125" y="287" font-size="25" font-weight="700" fill="#102033">用户消息</text>
<path d="M 252 316 H 258" stroke="#9333ea" stroke-width="4" stroke-linecap="round"/>
<path d="M 258 316 l -12 -8 v16 z" fill="#9333ea"/>
<rect x="269" y="245" width="178" height="142" rx="18" fill="#eef6ff" stroke="#cbd5e1" stroke-width="2"/>
<circle cx="301" cy="279" r="15" fill="#9333ea"/>
<text x="301" y="286" text-anchor="middle" font-size="18" font-weight="700" fill="#ffffff">2</text>
<text x="327" y="287" font-size="25" font-weight="700" fill="#102033">conversat</text>
<text x="327" y="315" font-size="25" font-weight="700" fill="#102033">ionId</text>
<path d="M 454 316 H 460" stroke="#9333ea" stroke-width="4" stroke-linecap="round"/>
<path d="M 460 316 l -12 -8 v16 z" fill="#9333ea"/>
<rect x="471" y="245" width="178" height="142" rx="18" fill="#eef6ff" stroke="#cbd5e1" stroke-width="2"/>
<circle cx="503" cy="279" r="15" fill="#9333ea"/>
<text x="503" y="286" text-anchor="middle" font-size="18" font-weight="700" fill="#ffffff">3</text>
<text x="529" y="287" font-size="25" font-weight="700" fill="#102033">ChatMemor</text>
<text x="529" y="315" font-size="25" font-weight="700" fill="#102033">y</text>
<path d="M 656 316 H 662" stroke="#9333ea" stroke-width="4" stroke-linecap="round"/>
<path d="M 662 316 l -12 -8 v16 z" fill="#9333ea"/>
<rect x="673" y="245" width="178" height="142" rx="18" fill="#eef6ff" stroke="#cbd5e1" stroke-width="2"/>
<circle cx="705" cy="279" r="15" fill="#9333ea"/>
<text x="705" y="286" text-anchor="middle" font-size="18" font-weight="700" fill="#ffffff">4</text>
<text x="731" y="287" font-size="25" font-weight="700" fill="#102033">历史上下文</text>
<path d="M 858 316 H 864" stroke="#9333ea" stroke-width="4" stroke-linecap="round"/>
<path d="M 864 316 l -12 -8 v16 z" fill="#9333ea"/>
<rect x="875" y="245" width="178" height="142" rx="18" fill="#eef6ff" stroke="#cbd5e1" stroke-width="2"/>
<circle cx="907" cy="279" r="15" fill="#9333ea"/>
<text x="907" y="286" text-anchor="middle" font-size="18" font-weight="700" fill="#ffffff">5</text>
<text x="933" y="287" font-size="25" font-weight="700" fill="#102033">模型回复</text>
<rect x="70" y="475" width="980" height="62" rx="16" fill="#f1f5f9"/>
<text x="92" y="514" font-size="23" fill="#102033">生产环境要考虑消息数量、持久化和 Token 预算。</text>
</svg>
